<svg version="1.1" id="Layer_1" xmlns="http://www.w3.org/2000/svg" xmlns:xlink="http://www.w3.org/1999/xlink" x="0px" y="0px" viewBox="0 0 500 500" style="width: 166px;" xml:space="preserve" data-imageid="receptionist-1-74" imageName="Receptionist 1" class="illustrations_image">
<style type="text/css">
	.st0_receptionist-1-74{fill:#FFBC0E;}
	.st1_receptionist-1-74{fill:#093F68;}
	.st2_receptionist-1-74{fill:#FFC9B0;}
	.st3_receptionist-1-74{fill:#68E1FD;}
	.st4_receptionist-1-74{fill:#725858;}
	.st5_receptionist-1-74{fill:#FFFFFF;}
</style>
<g id="bell_receptionist-1-74">
	<rect x="138.8" y="369" class="st0_receptionist-1-74" width="7.6" height="14.7"/>
	<path class="st1_receptionist-1-74" d="M146.4,385.6h-7.6c-1,0-1.9-0.8-1.9-1.9l0,0V369c0-1,0.8-1.9,1.8-1.9h0h7.6c1,0,1.9,0.8,1.9,1.9l0,0v14.7&#10;&#9;&#9;C148.3,384.7,147.5,385.6,146.4,385.6C146.4,385.6,146.4,385.6,146.4,385.6z M140.6,381.9h3.9v-11h-3.9V381.9z"/>
	<path class="st0_receptionist-1-74" d="M103.8,407.5c0,0,1.4-30.3,38.7-30.3s38.7,30.3,38.7,30.3H103.8z"/>
	<path class="st1_receptionist-1-74" d="M181.3,409.4h-77.5c-1,0-1.9-0.8-1.9-1.8c0,0,0-0.1,0-0.1c0-0.3,2-32,40.6-32s40.6,31.7,40.6,32&#10;&#9;&#9;C183.2,408.4,182.4,409.3,181.3,409.4C181.4,409.3,181.4,409.4,181.3,409.4L181.3,409.4z M105.9,405.6h73.3&#10;&#9;&#9;c-1-6.5-6.6-26.6-36.7-26.6S106.9,399.2,105.9,405.6z"/>
	<path class="st0_receptionist-1-74" d="M99.5,407.5h86.2c2.1,0,3.8,1.7,3.8,3.8v10.6l0,0H95.6l0,0v-10.6C95.6,409.2,97.4,407.5,99.5,407.5L99.5,407.5&#10;&#9;&#9;z"/>
	<path class="st1_receptionist-1-74" d="M189.5,423.8H95.6c-1,0-1.8-0.8-1.8-1.9l0,0v-7.3c0-5,4-9,9-9h79.7c5,0,9,4,9,9v7.3&#10;&#9;&#9;C191.5,422.9,190.6,423.8,189.5,423.8C189.6,423.8,189.5,423.8,189.5,423.8z M97.5,420.1h90.2v-5.5c0-2.9-2.4-5.2-5.3-5.2h-79.7&#10;&#9;&#9;c-2.9,0-5.3,2.3-5.3,5.2L97.5,420.1z"/>
	<circle class="st0_receptionist-1-74" cx="142.6" cy="362.5" r="10.2"/>
	<path class="st1_receptionist-1-74" d="M142.6,374.6c-6.6,0-12-5.4-12-12s5.4-12,12-12s12,5.4,12,12S149.2,374.6,142.6,374.6z M142.6,354.2&#10;&#9;&#9;c-4.6,0-8.3,3.7-8.3,8.3c0,4.6,3.7,8.3,8.3,8.3c4.6,0,8.3-3.7,8.3-8.3l0,0C150.9,357.9,147.2,354.2,142.6,354.2L142.6,354.2z"/>
</g>
<g id="character_receptionist-1-74">
	<path class="st2_receptionist-1-74" d="M274.3,288.5h25.5l0,0v19.6c0,3.2-2.6,5.8-5.8,5.8h-13.8c-3.2,0-5.8-2.6-5.8-5.8V288.5L274.3,288.5z"/>
	<path class="st1_receptionist-1-74" d="M288.9,315.8h-3.9c-7,0-12.6-5.7-12.6-12.7v-14.6c0-1,0.8-1.9,1.9-1.9l0,0h25.5c1,0,1.9,0.8,1.9,1.9l0,0v14.6&#10;&#9;&#9;C301.6,310.1,295.9,315.8,288.9,315.8z M276.1,290.4v12.8c0,5,4,9,9,9h3.9c5,0,9-4,9-9v-12.8H276.1z"/>
	<path class="st3_receptionist-1-74 targetColor" d="M374,421.9v-62.6c0-28-26.4-50.6-58.9-50.6h-56.2c-32.5,0-58.9,22.7-58.9,50.6v62.6L374,421.9z" style="fill: rgb(104, 225, 253);"/>
	<path class="st1_receptionist-1-74" d="M374,423.8H200c-1,0-1.9-0.8-1.9-1.9l0,0v-62.6c0-28.9,27.2-52.5,60.7-52.5h56.2c33.5,0,60.7,23.5,60.7,52.5&#10;&#9;&#9;v62.6C375.8,422.9,375,423.8,374,423.8z M201.9,420.1h170.3v-60.8c0-26.9-25.6-48.8-57-48.8h-56.2c-31.4,0-57,21.9-57,48.8&#10;&#9;&#9;L201.9,420.1z"/>
	<path class="st4_receptionist-1-74" d="M280.4,88.4c2.9-0.5,5.8-0.7,8.8-0.7c13.6,0,27.4-0.4,39.8,6.2c25.4,13.4,41.9,41.8,41.9,72.3V226H205.4&#10;&#9;&#9;c-0.9-3.5,0.5-7.7,0.7-11.2c0.1-4-0.9-7.7-1.6-11.6c-1.9-9.8-3-19.7-3.3-29.7c-0.2-15.9,3.4-31.1,8.9-45.7&#10;&#9;&#9;c3.3-8.7,7.2-17.7,14.3-23.1s18.4-5.6,23.4,2C256.2,97,267.7,90.5,280.4,88.4z"/>
	<path class="st1_receptionist-1-74" d="M370.9,227.9H205.4c-0.8,0-1.6-0.6-1.8-1.4c-0.7-2.7-0.3-5.5,0.1-8.1c0.2-1.2,0.4-2.4,0.4-3.6&#10;&#9;&#9;c0-2.9-0.4-5.8-1.1-8.6c-0.2-0.8-0.4-1.7-0.5-2.6c-2-9.9-3.1-19.9-3.3-30c-0.2-14.7,2.8-29.9,9-46.4c3.4-8.9,7.4-18.1,14.9-23.9&#10;&#9;&#9;c4.5-3.4,10.2-4.9,15.8-4c3.4,0.5,6.5,2.1,8.9,4.7c8.5-9.2,19.9-15.3,32.2-17.5c3-0.5,6.1-0.7,9.1-0.8h2.4c12.9,0,26.2,0,38.2,6.4&#10;&#9;&#9;c26,13.7,42.9,42.7,42.9,73.9V226C372.8,227,372,227.9,370.9,227.9C370.9,227.9,370.9,227.9,370.9,227.9z M206.9,224.2h162.1v-58.1&#10;&#9;&#9;c0-29.8-16.1-57.6-40.9-70.7c-11.2-5.9-24.1-5.9-36.5-5.9h-2.4c-2.8,0-5.7,0.2-8.5,0.7l0,0c-12.3,2.1-23.4,8.4-31.5,17.8&#10;&#9;&#9;c-0.4,0.4-0.9,0.7-1.5,0.6c-0.6,0-1.1-0.3-1.4-0.8c-1.8-2.7-4.6-4.4-7.8-4.9c-4.6-0.7-9.2,0.5-12.9,3.3&#10;&#9;&#9;c-6.8,5.2-10.5,13.8-13.7,22.3c-6.1,16-9,30.8-8.8,45c0.2,9.9,1.3,19.7,3.2,29.4c0.2,0.8,0.3,1.7,0.5,2.5c0.8,3.1,1.2,6.3,1.1,9.5&#10;&#9;&#9;c-0.1,1.3-0.3,2.7-0.5,4C207.1,220.6,206.9,222.4,206.9,224.2L206.9,224.2z M280.4,88.4L280.4,88.4z"/>
	<ellipse class="st2_receptionist-1-74" cx="214.2" cy="218.8" rx="24.7" ry="21.3"/>
	<path class="st1_receptionist-1-74" d="M214.2,242c-14.7,0-26.6-10.4-26.6-23.2s11.9-23.2,26.6-23.2s26.6,10.4,26.6,23.2S228.9,242,214.2,242z&#10;&#9;&#9; M214.2,199.4c-12.6,0-22.9,8.7-22.9,19.5s10.3,19.5,22.9,19.5s22.9-8.7,22.9-19.5S226.9,199.3,214.2,199.4L214.2,199.4z"/>
	<ellipse class="st2_receptionist-1-74" cx="358.4" cy="218.8" rx="24.7" ry="21.3"/>
	<path class="st1_receptionist-1-74" d="M358.4,242c-14.7,0-26.6-10.4-26.6-23.2s11.9-23.2,26.6-23.2S385,206,385,218.8S373.1,242,358.4,242z&#10;&#9;&#9; M358.4,199.4c-12.6,0-22.9,8.7-22.9,19.5s10.3,19.5,22.9,19.5s22.9-8.7,22.9-19.5S371.1,199.3,358.4,199.4L358.4,199.4z"/>
	<path class="st2_receptionist-1-74" d="M287,288.2L287,288.2c-41.2,0-74.6-33.4-74.6-74.6v-21.9c0,0,33.2-22.9,38.8-39.8c0,0,16.9,20.6,43.6,27.9&#10;&#9;&#9;c21.9,5.8,44.2,9.8,66.8,11.9v21.9C361.6,254.9,328.2,288.2,287,288.2L287,288.2z"/>
	<path class="st1_receptionist-1-74" d="M287,290.1c-42.2,0-76.4-34.2-76.4-76.4v-21.9c0-0.6,0.3-1.2,0.8-1.5c0.3-0.2,32.8-22.8,38.1-38.8&#10;&#9;&#9;c0.3-1,1.4-1.5,2.3-1.2c0.3,0.1,0.6,0.3,0.8,0.6c0.2,0.2,16.8,20.2,42.7,27.3c33.1,9.1,66.1,11.8,66.4,11.8c1,0.1,1.7,0.9,1.7,1.9&#10;&#9;&#9;v21.9C363.4,255.9,329.2,290.1,287,290.1z M214.2,192.7v20.9c-0.5,40.2,31.7,73.1,71.9,73.6s73.1-31.7,73.6-71.9c0-0.6,0-1.1,0-1.7&#10;&#9;&#9;v-20.2c-7.2-0.7-36.2-3.8-65.4-11.8c-22-6-37.2-20.6-42.5-26.2C244.4,170.9,219.2,189.2,214.2,192.7L214.2,192.7z"/>
	<path class="st1_receptionist-1-74" d="M292.4,238.8c-2.2,0-4.5-0.2-6.7-0.6c-1-0.2-1.6-1.2-1.4-2.2c0.2-0.9,1.1-1.5,2-1.4c0.1,0,6.2,1.1,10.5,0.1&#10;&#9;&#9;c0.7-1.7-2-9.4-5.8-16.7c-0.5-0.9-0.2-2,0.7-2.5c0.9-0.5,2-0.2,2.5,0.7c0,0,0,0.1,0,0.1c1.9,3.6,7.8,15.6,5.8,20&#10;&#9;&#9;c-0.4,1-1.3,1.7-2.3,2C296.1,238.6,294.3,238.8,292.4,238.8z"/>
	<path class="st1_receptionist-1-74" d="M310.5,248.1l-42.1,10.5c0,0,4.1,16.1,24,13S310.5,248.1,310.5,248.1z"/>
	<path class="st1_receptionist-1-74" d="M230.5,422c-1,0-1.9-0.8-1.9-1.9l0,0v-67.8c0-1,0.8-1.8,1.9-1.8c1,0,1.8,0.8,1.8,1.8v67.8&#10;&#9;&#9;C232.3,421.2,231.5,422,230.5,422C230.5,422,230.5,422,230.5,422z"/>
	<path class="st1_receptionist-1-74" d="M343.5,422c-1,0-1.9-0.8-1.9-1.9l0,0v-67.8c0-1,0.8-1.9,1.9-1.9s1.9,0.8,1.9,1.9v67.8&#10;&#9;&#9;C345.4,421.2,344.6,422,343.5,422L343.5,422z"/>
	<circle class="st1_receptionist-1-74" cx="318.4" cy="218.5" r="6.5"/>
	<ellipse transform="matrix(0.1602 -0.9871 0.9871 0.1602 3.2442 435.6931)" class="st1_receptionist-1-74" cx="257.7" cy="215.9" rx="6.4" ry="6.5"/>
	<path class="st1_receptionist-1-74" d="M241.7,202.6c-2,0-3.7-1.7-3.7-3.7c0-1,0.4-1.9,1.1-2.6c5.7-5.8,20.1-13.6,33.4-2.4c1.6,1.3,1.8,3.7,0.4,5.2&#10;&#9;&#9;s-3.7,1.8-5.2,0.4c-11.4-9.6-22.9,1.5-23.4,2C243.6,202.3,242.7,202.6,241.7,202.6z"/>
	<path class="st1_receptionist-1-74" d="M337.2,202.6c-1,0-1.9-0.4-2.6-1.1l0,0c-0.5-0.5-12-11.6-23.4-2c-1.6,1.3-3.9,1.1-5.2-0.4s-1.1-3.9,0.4-5.2&#10;&#9;&#9;c13.3-11.2,27.6-3.3,33.4,2.4c1.4,1.4,1.4,3.8,0,5.2C339.1,202.3,338.2,202.7,337.2,202.6L337.2,202.6z"/>
	<path class="st3_receptionist-1-74 targetColor" d="M199.3,101.3c53.7-31.1,119.9-31.1,173.6,0v76c-53.7-31.1-119.9-31.1-173.6,0L199.3,101.3z" style="fill: rgb(104, 225, 253);"/>
	<path class="st1_receptionist-1-74" d="M373,179.2c-0.3,0-0.6-0.1-0.9-0.2c-53.2-30.6-118.6-30.6-171.8,0c-0.9,0.5-2,0.2-2.5-0.7&#10;&#9;&#9;c-0.2-0.3-0.2-0.6-0.2-0.9v-76c0-0.7,0.4-1.3,0.9-1.6c54.3-31.3,121.2-31.3,175.5,0c0.6,0.3,0.9,0.9,0.9,1.6v76&#10;&#9;&#9;C374.8,178.3,374,179.2,373,179.2z M286.2,152.2c29.7,0,59,7.5,85,21.9v-71.8c-52.7-29.9-117.2-29.9-169.9,0v71.8&#10;&#9;&#9;C227.2,159.8,256.4,152.2,286.2,152.2L286.2,152.2z"/>
	<path class="st1_receptionist-1-74" d="M372.9,158.7c-0.3,0-0.6-0.1-0.9-0.2c-53.2-30.6-118.6-30.6-171.8,0c-0.9,0.6-2,0.3-2.6-0.6s-0.3-2,0.6-2.6&#10;&#9;&#9;c0,0,0.1-0.1,0.1-0.1c54.3-31.3,121.2-31.3,175.5,0c0.9,0.5,1.2,1.6,0.7,2.5c0,0,0,0,0,0C374.2,158.3,373.6,158.7,372.9,158.7z"/>
	<circle class="st0_receptionist-1-74" cx="225.9" cy="145.1" r="11.7"/>
	<path class="st1_receptionist-1-74" d="M225.9,158.7c-7.5,0-13.5-6.1-13.5-13.5c0-7.5,6.1-13.5,13.5-13.5c7.5,0,13.5,6.1,13.5,13.5&#10;&#9;&#9;C239.4,152.6,233.4,158.7,225.9,158.7z M225.9,135.3c-5.4,0-9.8,4.4-9.8,9.8s4.4,9.8,9.8,9.8s9.8-4.4,9.8-9.8c0,0,0,0,0,0&#10;&#9;&#9;C235.7,139.7,231.3,135.4,225.9,135.3z"/>
	<rect x="253.4" y="293.8" class="st3_receptionist-1-74 targetColor" width="67.1" height="14.8" style="fill: rgb(104, 225, 253);"/>
	<path class="st1_receptionist-1-74" d="M320.6,310.5h-67.1c-1,0-1.9-0.8-1.9-1.9l0,0v-14.8c0-1,0.8-1.9,1.8-1.9h0h67.1c1,0,1.9,0.8,1.9,1.9l0,0v14.8&#10;&#9;&#9;C322.4,309.7,321.6,310.5,320.6,310.5L320.6,310.5z M255.3,306.8h63.4v-11.1h-63.4L255.3,306.8z"/>
	<path class="st1_receptionist-1-74" d="M287,422c-1,0-1.9-0.8-1.9-1.8c0,0,0,0,0,0V293.8c0.1-1,1-1.8,2-1.7c0.9,0.1,1.7,0.8,1.7,1.7v126.3&#10;&#9;&#9;C288.8,421.2,288,422,287,422z"/>
	<path class="st1_receptionist-1-74" d="M274.4,339.5c-3.4,0-6.1-2.7-6.1-6.1s2.7-6.1,6.1-6.1s6.1,2.7,6.1,6.1C280.5,336.7,277.7,339.5,274.4,339.5z&#10;&#9;&#9; M274.4,330.9c-1.3,0-2.4,1.1-2.4,2.4s1.1,2.4,2.4,2.4s2.4-1.1,2.4-2.4C276.8,332,275.7,330.9,274.4,330.9z"/>
	<path class="st1_receptionist-1-74" d="M274.4,373.8c-3.4,0-6.1-2.7-6.1-6.1s2.7-6.1,6.1-6.1s6.1,2.7,6.1,6.1C280.5,371,277.7,373.7,274.4,373.8z&#10;&#9;&#9; M274.4,365.2c-1.3,0-2.4,1.1-2.4,2.4s1.1,2.4,2.4,2.4s2.4-1.1,2.4-2.4C276.8,366.3,275.7,365.2,274.4,365.2z"/>
	<path class="st1_receptionist-1-74" d="M274.4,408c-3.4,0-6.1-2.7-6.1-6.1c0-3.4,2.7-6.1,6.1-6.1c3.4,0,6.1,2.7,6.1,6.1c0,0,0,0,0,0&#10;&#9;&#9;C280.5,405.3,277.7,408,274.4,408z M274.4,399.4c-1.3,0-2.4,1.1-2.4,2.4s1.1,2.4,2.4,2.4s2.4-1.1,2.4-2.4&#10;&#9;&#9;C276.8,400.5,275.7,399.4,274.4,399.4L274.4,399.4z"/>
	<rect x="299.7" y="350.2" class="st5_receptionist-1-74" width="34" height="15.1"/>
	<path class="st1_receptionist-1-74" d="M333.7,367.1h-34c-1,0-1.9-0.8-1.9-1.9l0,0v-15.1c0-1,0.8-1.9,1.9-1.9l0,0h34c1,0,1.9,0.8,1.9,1.9l0,0v15.1&#10;&#9;&#9;C335.6,366.3,334.7,367.1,333.7,367.1L333.7,367.1z M301.6,363.4h30.3V352h-30.3V363.4z"/>
	<path class="st1_receptionist-1-74" d="M408.6,423.8H87.1c-1,0-1.9-0.8-1.9-1.9s0.8-1.9,1.9-1.9h321.6c1,0,1.9,0.8,1.9,1.9S409.7,423.8,408.6,423.8&#10;&#9;&#9;L408.6,423.8z"/>
	<polygon class="st3_receptionist-1-74 targetColor" points="369,381.5 359.6,421.9 396,421.9 400.2,382.8 &#9;" style="fill: rgb(104, 225, 253);"/>
	<path class="st1_receptionist-1-74" d="M396,423.8h-36.4c-0.6,0-1.1-0.3-1.5-0.7c-0.3-0.4-0.5-1-0.4-1.6l9.4-40.5c0.2-0.9,1-1.5,1.9-1.4l31.2,1.4&#10;&#9;&#9;c1,0,1.8,0.9,1.8,1.9c0,0,0,0.1,0,0.1l-4.2,39.1C397.7,423,396.9,423.7,396,423.8z M362,420.1h32.4l3.8-35.5l-27.7-1.2L362,420.1z"/>
	<path class="st2_receptionist-1-74" d="M368.3,372.2c2.8-14.7,7-33.6,10.2-33c5.1,1.1,3.3,5.2,0.3,17.6c0,0,6.6-29.7,18.8-28.6&#10;&#9;&#9;c8.7,0.8,16.5,2.7,15.3,14.2c-0.8,7.4-4.8,26.9-10.5,40.2c-3.5,8.1-12,11.5-20.9,10.2S366.5,381.4,368.3,372.2z"/>
	<path class="st1_receptionist-1-74" d="M385,394.9c-1.3,0-2.6-0.1-3.9-0.3c-4.5-0.8-8.5-3.3-11.1-7.1c-3.2-4.6-4.5-10.2-3.5-15.7l0,0&#10;&#9;&#9;c5.9-31.1,9-33.2,10.2-34c0.6-0.4,1.4-0.6,2.2-0.5c1.5,0.2,2.9,1,3.8,2.3c4.4-9.3,9.5-13.8,15-13.3s11.2,1.5,14.5,5.4&#10;&#9;&#9;c2.2,2.6,3,6.2,2.5,10.8c-0.8,7.5-4.8,27.2-10.6,40.7C400.9,390.6,393.6,394.9,385,394.9z M378.5,341.1c-0.9,1-3.6,6.1-8.4,31.4&#10;&#9;&#9;l0,0c-0.8,4.5,0.3,9.1,2.9,12.9c2,3,5.1,5,8.7,5.6c8.7,1.3,16-2.2,19-9.1c5.7-13.1,9.6-32.3,10.4-39.7c0.4-3.6-0.1-6.2-1.6-8.1&#10;&#9;&#9;c-2.4-2.9-7.1-3.7-12-4.1c-7.9-0.7-14,16.1-16.3,25c-0.2,0.7-0.4,1.5-0.5,2.2c-0.2,1-1.2,1.6-2.2,1.4c0,0,0,0,0,0&#10;&#9;&#9;c-1-0.2-1.6-1.2-1.4-2.2c0-0.1,0.1-0.6,0.3-1.4c0.3-1.1,0.5-2.2,0.8-3.1c1.2-5,2.2-9,1.5-10.1C379.5,341.6,379.3,341.4,378.5,341.1&#10;&#9;&#9;L378.5,341.1z"/>
	<path class="st1_receptionist-1-74" d="M390.6,379.2c-0.2,0-0.3,0-0.5-0.1c-1-0.3-1.6-1.3-1.3-2.3c0,0,0,0,0,0c2.7-10.3-10.9-18.4-11-18.4&#10;&#9;&#9;c-0.9-0.6-1.1-1.7-0.6-2.6c0.5-0.8,1.6-1.1,2.4-0.6c0.7,0.4,16.2,9.5,12.7,22.6C392.2,378.6,391.5,379.2,390.6,379.2z"/>
</g>
</svg>